<svg width="30" height="30" viewBox="0 0 30 30" fill="none" xmlns="http://www.w3.org/2000/svg">
<path d="M16.7578 8.84766C17.2432 8.84766 17.6367 8.45416 17.6367 7.96875C17.6367 7.48334 17.2432 7.08984 16.7578 7.08984C16.2724 7.08984 15.8789 7.48334 15.8789 7.96875C15.8789 8.45416 16.2724 8.84766 16.7578 8.84766Z" fill="#00730C"/>
<path d="M20.2734 8.84766C20.7588 8.84766 21.1523 8.45416 21.1523 7.96875C21.1523 7.48334 20.7588 7.08984 20.2734 7.08984C19.788 7.08984 19.3945 7.48334 19.3945 7.96875C19.3945 8.45416 19.788 8.84766 20.2734 8.84766Z" fill="#00730C"/>
<path d="M23.7891 8.84766C24.2745 8.84766 24.668 8.45416 24.668 7.96875C24.668 7.48334 24.2745 7.08984 23.7891 7.08984C23.3037 7.08984 22.9102 7.48334 22.9102 7.96875C22.9102 8.45416 23.3037 8.84766 23.7891 8.84766Z" fill="#00730C"/>
<path d="M19.7586 28.1836C21.2055 28.1836 22.3828 27.0008 22.3828 25.5469V22.0312C22.3828 21.6531 22.141 21.3175 21.7825 21.1976L16.5215 19.4398C16.2639 19.3538 15.9813 19.3916 15.7554 19.5421L13.5182 21.0336C11.1171 19.8943 8.27924 17.0816 7.15049 14.7232L8.64147 12.4867C8.79199 12.2609 8.82979 11.9781 8.74377 11.7207L6.98596 6.45973C6.86613 6.10113 6.53045 5.85938 6.15234 5.85938H2.63672C1.18283 5.85938 0 7.03658 0 8.48361C0 13.3397 2.20805 18.3236 6.05801 22.1575C9.90375 25.9871 14.8975 28.1836 19.7586 28.1836ZM2.63672 7.61719H5.51936L6.94025 11.8697L5.42109 14.1484C5.26055 14.3892 5.22885 14.6936 5.33637 14.9623C5.92084 16.4235 7.09049 18.0669 8.6298 19.5898C10.159 21.1026 11.8104 22.2595 13.2799 22.8472C13.5485 22.9547 13.853 22.923 14.0938 22.7625L16.3726 21.2433L20.625 22.6642V25.5469C20.625 26.0397 20.2444 26.4258 19.7586 26.4258C10.5059 26.4258 1.75781 17.7062 1.75781 8.48361C1.75781 7.99775 2.14389 7.61719 2.63672 7.61719Z" fill="#00730C"/>
<path d="M16.4215 17.5698C16.7498 17.7059 17.1279 17.6306 17.3793 17.3793L20.6375 14.1211H23.7891C27.2138 14.1211 30 11.3612 30 7.96875C30 4.57635 27.2138 1.81641 23.7891 1.81641H16.7578C13.3654 1.81641 10.6055 4.57635 10.6055 7.96875C10.6055 11.0628 12.9013 13.6307 15.8789 14.0585V16.7578C15.8789 17.1133 16.0931 17.4337 16.4215 17.5698ZM12.3633 7.96875C12.3633 5.54561 14.3347 3.57422 16.7578 3.57422H23.7891C26.2445 3.57422 28.2422 5.54561 28.2422 7.96875C28.2422 10.3919 26.2445 12.3633 23.7891 12.3633H20.2734C20.0403 12.3633 19.8168 12.4559 19.652 12.6207L17.6367 14.636V13.2422C17.6367 12.7568 17.2432 12.3633 16.7578 12.3633C14.3347 12.3633 12.3633 10.3919 12.3633 7.96875Z" fill="#00730C"/>
</svg>
